<svg xmlns="http://www.w3.org/2000/svg" version="1.1" xmlns:xlink="http://www.w3.org/1999/xlink" width="1000" height="1000"><g clip-path="url(#SvgjsClipPath1012)"><rect width="1000" height="1000" fill="#ffffff"></rect><g transform="matrix(14.583333333333334,0,0,14.583333333333334,150,150)"><svg xmlns="http://www.w3.org/2000/svg" version="1.1" xmlns:xlink="http://www.w3.org/1999/xlink" width="48" height="48"><svg xmlns="http://www.w3.org/2000/svg" viewBox="0 0 24 24" width="48" height="48" fill="none" stroke="#000000" stroke-width="2" stroke-linecap="round" stroke-linejoin="round" style="opacity:1;"><path d="M19 17h2c.6 0 1-.4 1-1v-3c0-.9-.7-1.7-1.5-1.9C18.7 10.6 16 10 16 10s-1.3-1.4-2.2-2.3c-.5-.4-1.1-.7-1.8-.7H5c-.6 0-1.1.4-1.4.9l-1.4 2.9A3.7 3.7 0 0 0 2 12v4c0 .6.4 1 1 1h2"></path><circle cx="7" cy="17" r="2"></circle><path d="M9 17h6"></path><circle cx="17" cy="17" r="2"></circle></svg></svg></g></g><defs><clipPath id="SvgjsClipPath1012"><rect width="1000" height="1000" x="0" y="0" rx="350" ry="350"></rect></clipPath></defs></svg>